<svg width="64" height="64" viewBox="0 0 64 64" fill="none" xmlns="http://www.w3.org/2000/svg">
<rect width="64" height="64" rx="32" fill="#54221E"/>
<path d="M29.2491 36.6667C29.1301 36.2053 28.8895 35.7842 28.5526 35.4472C28.2156 35.1103 27.7945 34.8698 27.3331 34.7507L19.1531 32.6414C19.0135 32.6018 18.8907 32.5177 18.8032 32.402C18.7158 32.2862 18.6685 32.1451 18.6685 32C18.6685 31.855 18.7158 31.7139 18.8032 31.5981C18.8907 31.4824 19.0135 31.3983 19.1531 31.3587L27.3331 29.248C27.7944 29.1291 28.2153 28.8888 28.5523 28.5521C28.8892 28.2154 29.1298 27.7946 29.2491 27.3334L31.3584 19.1534C31.3976 19.0133 31.4816 18.8898 31.5975 18.8019C31.7134 18.714 31.8549 18.6664 32.0004 18.6664C32.1459 18.6664 32.2874 18.714 32.4033 18.8019C32.5192 18.8898 32.6032 19.0133 32.6424 19.1534L34.7504 27.3334C34.8695 27.7948 35.11 28.2159 35.4469 28.5529C35.7839 28.8898 36.205 29.1303 36.6664 29.2494L44.8464 31.3574C44.9871 31.3962 45.1111 31.4801 45.1995 31.5961C45.2879 31.7122 45.3358 31.8541 45.3358 32C45.3358 32.146 45.2879 32.2879 45.1995 32.4039C45.1111 32.52 44.9871 32.6039 44.8464 32.6427L36.6664 34.7507C36.205 34.8698 35.7839 35.1103 35.4469 35.4472C35.11 35.7842 34.8695 36.2053 34.7504 36.6667L32.6411 44.8467C32.6019 44.9868 32.5179 45.1103 32.402 45.1982C32.2861 45.2861 32.1446 45.3337 31.9991 45.3337C31.8536 45.3337 31.7121 45.2861 31.5962 45.1982C31.4803 45.1103 31.3963 44.9868 31.3571 44.8467L29.2491 36.6667Z" stroke="white" stroke-width="2.66667" stroke-linecap="round" stroke-linejoin="round"/>
<path d="M42.6665 20V25.3333" stroke="white" stroke-width="2.66667" stroke-linecap="round" stroke-linejoin="round"/>
<path d="M45.3333 22.6666H40" stroke="white" stroke-width="2.66667" stroke-linecap="round" stroke-linejoin="round"/>
<path d="M21.3335 38.6666V41.3333" stroke="white" stroke-width="2.66667" stroke-linecap="round" stroke-linejoin="round"/>
<path d="M22.6667 40H20" stroke="white" stroke-width="2.66667" stroke-linecap="round" stroke-linejoin="round"/>
</svg>
