<svg width="218" height="96" viewBox="0 0 218 96" fill="none" xmlns="http://www.w3.org/2000/svg">
<path d="M198.472 54.3178C194.877 54.3178 191.718 53.5987 188.995 52.1605C186.273 50.6709 184.141 48.642 182.601 46.0738C181.06 43.4542 180.289 40.4751 180.289 37.1364C180.289 33.3354 181.162 30.0995 182.909 27.4285C184.655 24.7576 186.941 22.7287 189.766 21.3419C192.591 19.955 195.596 19.2616 198.78 19.2616C202.17 19.2616 205.15 19.9807 207.718 21.4189C210.337 22.8571 212.366 24.886 213.804 27.5056C215.294 30.0738 216.039 33.0273 216.039 36.3659C216.039 39.756 215.243 42.8122 213.65 45.5345C212.109 48.2054 210.003 50.337 207.332 51.9293C204.662 53.5216 201.708 54.3178 198.472 54.3178ZM199.243 49.3868C200.527 49.3868 201.605 48.9759 202.479 48.1541C203.403 47.3322 204.097 46.1252 204.559 44.5329C205.072 42.9406 205.329 41.0401 205.329 38.8314C205.329 34.4141 204.61 30.8186 203.172 28.0449C201.785 25.2712 199.91 23.8844 197.548 23.8844C195.596 23.8844 194.055 24.886 192.925 26.8892C191.795 28.8411 191.23 31.512 191.23 34.902C191.23 37.6244 191.564 40.0899 192.231 42.2985C192.95 44.5072 193.901 46.2536 195.082 47.5377C196.315 48.7704 197.702 49.3868 199.243 49.3868Z" fill="#8C3933"/>
<path d="M155.942 53.7015L155.711 50.0803L160.719 48.8475C160.771 48.2825 160.822 47.3066 160.873 45.9198C160.976 44.4816 161.053 42.8379 161.104 40.9888C161.156 39.1397 161.182 37.3419 161.182 35.5955V25.8876C161.182 24.0899 161.156 22.3178 161.104 20.5714C161.104 18.7737 161.079 17.0787 161.027 15.4864C161.027 13.8427 161.002 12.3788 160.95 11.0947C160.899 9.75923 160.822 8.68058 160.719 7.85875L155.018 7.08828L154.864 3.77528L169.58 0L171.737 1.30979C171.634 3.4671 171.531 5.57303 171.429 7.62761C171.377 9.63082 171.352 11.9165 171.352 14.4848C171.352 17.053 171.326 20.1862 171.275 23.8844L171.198 35.2103C171.198 38.8058 171.223 41.862 171.275 44.3788C171.377 46.8443 171.48 48.3339 171.583 48.8475L176.591 50.0803L176.437 53.7015H155.942Z" fill="#8C3933"/>
<path d="M132.982 53.7015L132.751 50.0803L137.759 48.8475C137.811 48.2825 137.862 47.3066 137.913 45.9198C138.016 44.4816 138.093 42.8379 138.145 40.9888C138.196 39.1397 138.222 37.3419 138.222 35.5955V25.8876C138.222 24.0899 138.196 22.3178 138.145 20.5714C138.145 18.7737 138.119 17.0787 138.068 15.4864C138.068 13.8427 138.042 12.3788 137.99 11.0947C137.939 9.75923 137.862 8.68058 137.759 7.85875L132.058 7.08828L131.904 3.77528L146.62 0L148.777 1.30979C148.674 3.4671 148.572 5.57303 148.469 7.62761C148.417 9.63082 148.392 11.9165 148.392 14.4848C148.392 17.053 148.366 20.1862 148.315 23.8844L148.238 35.2103C148.238 38.8058 148.263 41.862 148.315 44.3788C148.417 46.8443 148.52 48.3339 148.623 48.8475L153.631 50.0803L153.477 53.7015H132.982Z" fill="#8C3933"/>
<path d="M111.487 54.3178C107.891 54.3178 104.732 53.5987 102.01 52.1605C99.2875 50.6709 97.1558 48.642 95.6149 46.0738C94.074 43.4542 93.3035 40.4751 93.3035 37.1364C93.3035 33.3354 94.1767 30.0995 95.9231 27.4285C97.6695 24.7576 99.9552 22.7287 102.78 21.3419C105.605 19.955 108.61 19.2616 111.795 19.2616C115.185 19.2616 118.164 19.9807 120.732 21.4189C123.352 22.8571 125.381 24.886 126.819 27.5056C128.308 30.0738 129.053 33.0273 129.053 36.3659C129.053 39.756 128.257 42.8122 126.665 45.5345C125.124 48.2054 123.018 50.337 120.347 51.9293C117.676 53.5216 114.722 54.3178 111.487 54.3178ZM112.257 49.3868C113.541 49.3868 114.62 48.9759 115.493 48.1541C116.417 47.3322 117.111 46.1252 117.573 44.5329C118.087 42.9406 118.344 41.0401 118.344 38.8314C118.344 34.4141 117.625 30.8186 116.186 28.0449C114.8 25.2712 112.925 23.8844 110.562 23.8844C108.61 23.8844 107.069 24.886 105.939 26.8892C104.809 28.8411 104.244 31.512 104.244 34.902C104.244 37.6244 104.578 40.0899 105.246 42.2985C105.965 44.5072 106.915 46.2536 108.096 47.5377C109.329 48.7704 110.716 49.3868 112.257 49.3868Z" fill="#8C3933"/>
<path d="M48.4623 70.6517L48.2312 67.1075L53.0081 65.7977C53.0081 65.4895 53.0338 64.8475 53.0851 63.8716C53.1365 62.947 53.1879 61.7656 53.2392 60.3274C53.2906 58.9406 53.342 57.3996 53.3933 55.7046C53.4447 54.061 53.4704 52.3659 53.4704 50.6195L53.6245 35.2873C53.6245 33.7977 53.5731 32.4366 53.4704 31.2038C53.3676 29.9711 53.1879 28.7126 52.931 27.4285L48.0001 26.3499V22.8828L61.5603 19.4157L63.6405 20.7255L63.1012 25.4253L63.3323 25.5024C64.5137 23.6019 66.029 22.0866 67.8781 20.9566C69.7272 19.8266 71.6791 19.2616 73.7336 19.2616C76.1991 19.2616 78.5105 19.9037 80.6678 21.1878C82.8251 22.4205 84.5715 24.2439 85.907 26.6581C87.2425 29.0722 87.9102 31.9743 87.9102 35.3643C87.9102 38.7544 87.1141 41.8876 85.5218 44.764C83.9808 47.5891 81.7979 49.8748 78.9728 51.6212C76.1478 53.3675 72.7834 54.2407 68.8797 54.2407C68.0579 54.2407 67.159 54.1637 66.1831 54.0096C65.2585 53.8555 64.3339 53.6244 63.4094 53.3162V58.1701C63.4094 59.8651 63.4351 61.4574 63.4864 62.947C63.5892 64.4366 63.6919 65.3868 63.7946 65.7977L70.1124 67.0305L69.8813 70.6517H48.4623ZM69.0338 48.7704C70.6261 48.7704 72.0129 48.4109 73.1943 47.6918C74.4271 46.9213 75.403 45.7143 76.1221 44.0706C76.8412 42.4269 77.2007 40.321 77.2007 37.7528C77.2007 35.0818 76.8155 32.9502 76.045 31.3579C75.3259 29.7142 74.35 28.5072 73.1173 27.7367C71.9359 26.9663 70.6518 26.581 69.2649 26.581C68.1863 26.581 67.1333 26.8635 66.106 27.4285C65.0787 27.9422 64.1799 28.6613 63.4094 29.5858V47.1525C64.1799 47.6661 65.053 48.077 66.029 48.3852C67.0049 48.642 68.0065 48.7704 69.0338 48.7704Z" fill="#8C3933"/>
<path d="M0.23114 53.7015L0 49.8491L4.00642 48.6164L19.6469 10.7095L26.0418 7.08829L43.8395 48.6164L47.7689 49.8491L47.5378 53.7015H27.0434L26.7352 49.8491L31.6662 48.6164L27.5056 38.6774L26.6581 36.0578L18.9535 17.7978L21.1878 18.4141L14.793 35.8267L14.0225 38.1381L10.4013 48.6164L15.3323 49.8491L15.1011 53.7015H0.23114ZM12.2504 40.6035V35.3644C13.2263 35.4157 14.3564 35.4928 15.6405 35.5955C16.9759 35.6469 18.7223 35.6726 20.8796 35.6726C22.9342 35.6726 24.6292 35.6469 25.9647 35.5955C27.3516 35.4928 28.5329 35.4157 29.5089 35.3644V40.5265C28.5329 40.5265 27.3516 40.5008 25.9647 40.4495C24.5779 40.3981 22.8829 40.3724 20.8796 40.3724C18.7737 40.3724 17.053 40.3981 15.7175 40.4495C14.382 40.5008 13.2263 40.5522 12.2504 40.6035Z" fill="#8C3933"/>
<path d="M207.082 95.6148L206.986 93.8331L210.116 93.1589C210.18 92.8379 210.228 92.3082 210.26 91.5698C210.292 90.8315 210.308 89.8523 210.308 88.6324C210.34 87.4125 210.356 85.9198 210.356 84.1541V78.1348C210.356 76.9149 210.34 75.6629 210.308 74.3788C210.308 73.0947 210.292 71.8909 210.26 70.7673C210.26 69.6116 210.244 68.6324 210.212 67.8299C210.212 66.9952 210.196 66.4494 210.164 66.1926L206.6 65.7111L206.504 64.1701L213.39 62.1958L214.305 62.87C214.273 64.2183 214.241 65.5666 214.209 66.9149C214.177 68.2632 214.144 69.756 214.112 71.3933C214.112 73.0305 214.112 75.0048 214.112 77.3162L214.064 85.069C214.064 86.9631 214.08 88.6806 214.112 90.2215C214.177 91.7303 214.241 92.7095 214.305 93.1589L217.435 93.8331L217.339 95.6148H207.082Z" fill="#8C3933"/>
<path d="M196.006 95.9998C194.145 95.9998 192.459 95.5825 190.95 94.7478C189.474 93.9131 188.286 92.7253 187.387 91.1844C186.52 89.6114 186.087 87.7655 186.087 85.6467C186.087 83.3674 186.552 81.3931 187.483 79.7237C188.414 78.0544 189.634 76.7703 191.143 75.8714C192.652 74.9404 194.273 74.491 196.006 74.5231C198.511 74.5552 200.469 75.3899 201.881 77.0271C203.294 78.6643 204 80.9757 204 83.9613V84.8281H189.217V82.7093H200.822L200.292 83.3353V82.3241C200.292 80.4621 199.875 79.0335 199.04 78.0383C198.206 77.0432 197.066 76.5456 195.621 76.5456C194.722 76.5456 193.856 76.8184 193.021 77.3642C192.186 77.8778 191.512 78.6804 190.998 79.7719C190.485 80.8313 190.228 82.1796 190.228 83.8168V84.3947C190.228 87.0271 190.87 89.0817 192.154 90.5584C193.47 92.0351 195.156 92.7735 197.21 92.7735C198.334 92.7735 199.345 92.5488 200.244 92.0993C201.143 91.6499 202.01 90.9276 202.844 89.9324L204.048 91.0399C203.149 92.7093 202.01 93.9613 200.629 94.796C199.249 95.5985 197.708 95.9998 196.006 95.9998Z" fill="#8C3933"/>
<path d="M184.69 92.6292C184.08 93.6886 183.246 94.5233 182.186 95.1332C181.127 95.7111 180.019 96 178.864 96C176.905 96 175.3 95.4061 174.048 94.2183C172.796 93.0305 172.17 91.2488 172.17 88.8732L172.315 77.3644H168.944V76.3531L175.156 70.7191H176.071L175.974 76.2568L175.926 88.1027C175.926 89.7721 176.279 91.008 176.986 91.8106C177.724 92.6132 178.751 93.0145 180.067 93.0145C180.806 93.0145 181.48 92.87 182.09 92.5811C182.732 92.2922 183.31 91.9069 183.823 91.4254L184.69 92.6292ZM174.241 77.3644V74.9567H183.246V77.3644H174.241Z" fill="#8C3933"/>
<path d="M155.99 96C153.904 96 152.074 95.5506 150.501 94.6517C148.96 93.7529 147.756 92.5008 146.889 90.8957C146.022 89.2585 145.589 87.3965 145.589 85.3098C145.589 83.1268 146.071 81.2328 147.034 79.6277C147.997 78.0225 149.281 76.7705 150.886 75.8716C152.491 74.9728 154.257 74.5233 156.183 74.5233C158.173 74.5233 159.907 74.9728 161.384 75.8716C162.892 76.7384 164.048 77.9744 164.851 79.5795C165.685 81.1525 166.103 82.9984 166.103 85.1172C166.103 87.1397 165.653 88.9695 164.754 90.6068C163.856 92.244 162.636 93.5602 161.095 94.5554C159.586 95.5185 157.884 96 155.99 96ZM156.472 93.7368C157.563 93.7368 158.51 93.4158 159.313 92.7737C160.116 92.0996 160.742 91.1846 161.191 90.0289C161.64 88.8411 161.865 87.4928 161.865 85.984C161.865 83.2232 161.287 80.992 160.132 79.2906C159.008 77.557 157.515 76.6903 155.653 76.6903C153.92 76.6903 152.523 77.4126 151.464 78.8572C150.437 80.3018 149.923 82.2119 149.923 84.5875C149.923 86.3853 150.196 87.9744 150.742 89.3548C151.319 90.7352 152.106 91.8106 153.101 92.5811C154.096 93.3516 155.22 93.7368 156.472 93.7368Z" fill="#8C3933"/>
<path d="M130.95 95.6148L130.854 93.7849L133.791 93.1108C133.855 92.9824 133.904 92.6613 133.936 92.1477C134 91.6019 134.032 90.8315 134.032 89.8363C134.064 88.8411 134.08 87.5731 134.08 86.0321V76.9791C134.08 75.4061 134.064 74.122 134.032 73.1268C134.032 72.0995 134 71.3291 133.936 70.8154C133.904 70.2697 133.855 69.9486 133.791 69.8523L130.854 69.1782L130.95 67.3483H141.303L141.448 69.1782L138.462 69.8523C138.398 69.9486 138.334 70.2697 138.27 70.8154C138.237 71.3291 138.205 72.0995 138.173 73.1268C138.173 74.122 138.173 75.4061 138.173 76.9791V86.0321C138.173 87.5731 138.173 88.8411 138.173 89.8363C138.205 90.8315 138.237 91.6019 138.27 92.1477C138.334 92.6613 138.398 92.9824 138.462 93.1108L141.448 93.7849L141.303 95.6148H130.95ZM113.615 95.6148L113.47 93.7849L116.456 93.1108C116.52 92.9503 116.552 92.5811 116.552 92.0032C116.584 91.4254 116.6 90.6389 116.6 89.6437C116.632 88.6485 116.648 87.4446 116.648 86.0321V76.9791C116.648 75.5345 116.632 74.3146 116.6 73.3194C116.6 72.2921 116.584 71.4896 116.552 70.9117C116.552 70.3339 116.52 69.9808 116.456 69.8523L113.47 69.1782L113.615 67.3483H123.872L123.968 69.1782L121.03 69.8523C120.966 69.9486 120.902 70.2697 120.838 70.8154C120.806 71.3291 120.774 72.0995 120.741 73.1268C120.741 74.122 120.741 75.4061 120.741 76.9791V86.0321C120.741 87.5731 120.741 88.8411 120.741 89.8363C120.774 90.8315 120.806 91.6019 120.838 92.1477C120.902 92.6613 120.966 92.9824 121.03 93.1108L123.968 93.7849L123.872 95.6148H113.615ZM120.164 82.5169V79.6758C120.806 79.7079 121.737 79.74 122.957 79.7721C124.209 79.8042 125.717 79.8202 127.483 79.8202C129.217 79.8202 130.693 79.8042 131.913 79.7721C133.133 79.74 134.032 79.7079 134.61 79.6758V82.5169C133.904 82.4527 132.989 82.4045 131.865 82.3724C130.742 82.3403 129.281 82.3243 127.483 82.3243C125.621 82.3243 124.112 82.3403 122.957 82.3724C121.801 82.4045 120.87 82.4527 120.164 82.5169Z" fill="#8C3933"/>
</svg>
